<svg width="13" height="13" viewBox="0 0 13 13" fill="none" xmlns="http://www.w3.org/2000/svg">
<path d="M4.55 13C4.1925 13 3.9 12.7075 3.9 12.35V10.4H1.3C0.955219 10.4 0.624558 10.263 0.380761 10.0192C0.136964 9.77544 0 9.44478 0 9.1V1.3C0 0.955219 0.136964 0.624558 0.380761 0.380761C0.624558 0.136964 0.955219 0 1.3 0H11.7C12.0448 0 12.3754 0.136964 12.6192 0.380761C12.863 0.624558 13 0.955219 13 1.3V9.1C13 9.8215 12.4215 10.4 11.7 10.4H7.735L5.33 12.8115C5.2 12.935 5.0375 13 4.875 13H4.55ZM5.2 9.1V11.102L7.202 9.1H11.7V1.3H1.3V9.1H5.2ZM8.84 2.6L9.75 3.5165L5.5055 7.8L3.25 5.525L4.16 4.6085L5.5055 5.9605L8.84 2.6Z" fill="black"/>
</svg>
