<svg width="18" height="17" viewBox="0 0 18 17" fill="none" xmlns="http://www.w3.org/2000/svg">
<path d="M17.0052 2.31204L14.979 0.246622C14.8228 0.0883153 14.6114 -0.000541687 14.3911 -0.000541687C14.1708 -0.000541687 13.9595 0.0883153 13.8033 0.246622L9.15036 4.98943C9.07308 5.06885 9.01194 5.16304 8.97044 5.2666C8.92894 5.37016 8.90791 5.48105 8.90854 5.59291V7.64983C8.90854 7.87525 8.99639 8.09145 9.15277 8.25085C9.30915 8.41024 9.52124 8.49979 9.74239 8.49979H11.7603C11.8701 8.50044 11.9788 8.479 12.0804 8.4367C12.182 8.3944 12.2744 8.33208 12.3524 8.2533L17.0052 3.51049C17.1606 3.35124 17.2477 3.13582 17.2477 2.91127C17.2477 2.68672 17.1606 2.47129 17.0052 2.31204ZM11.4101 6.79986H10.5762V5.9499L14.3953 2.05705L15.2291 2.90702L11.4101 6.79986ZM14.7455 8.49979C14.5244 8.49979 14.3123 8.58934 14.1559 8.74874C13.9995 8.90814 13.9117 9.12434 13.9117 9.34976C13.9117 10.9277 13.2967 12.4411 12.202 13.5569C11.1074 14.6727 9.62275 15.2995 8.07469 15.2995H3.41346L3.94712 14.764C4.02528 14.685 4.08731 14.591 4.12965 14.4874C4.17198 14.3839 4.19377 14.2728 4.19377 14.1606C4.19377 14.0484 4.17198 13.9373 4.12965 13.8337C4.08731 13.7301 4.02528 13.6361 3.94712 13.5571C3.13072 12.725 2.57474 11.6648 2.34948 10.5106C2.12423 9.35642 2.23982 8.16006 2.68164 7.07283C3.12346 5.9856 3.87166 5.05634 4.83163 4.40258C5.79159 3.74881 6.92019 3.39991 8.07469 3.4C8.29584 3.4 8.50794 3.31045 8.66431 3.15105C8.82069 2.99165 8.90854 2.77546 8.90854 2.55003C8.90854 2.32461 8.82069 2.10841 8.66431 1.94901C8.50794 1.78961 8.29584 1.70006 8.07469 1.70006C6.66337 1.70479 5.28195 2.11509 4.08903 2.88385C2.89611 3.6526 1.94003 4.74867 1.33055 6.04621C0.72107 7.34376 0.48289 8.79019 0.643354 10.2195C0.803817 11.6487 1.35642 13.0029 2.23773 14.1266L0.811838 15.546C0.696135 15.6655 0.617756 15.8173 0.586591 15.9822C0.555427 16.1471 0.572873 16.3177 0.636729 16.4725C0.699285 16.6277 0.805516 16.7606 0.942034 16.8544C1.07855 16.9481 1.23925 16.9986 1.40387 16.9995H8.07469C9.06022 16.9995 10.0361 16.8016 10.9466 16.4172C11.8571 16.0327 12.6844 15.4693 13.3813 14.7589C14.0782 14.0486 14.631 13.2053 15.0081 12.2772C15.3852 11.3491 15.5794 10.3543 15.5794 9.34976C15.5794 9.12434 15.4915 8.90814 15.3351 8.74874C15.1788 8.58934 14.9667 8.49979 14.7455 8.49979Z" fill="black"/>
</svg>
