<svg width="27" height="27" viewBox="0 0 27 27" fill="none" xmlns="http://www.w3.org/2000/svg">
<path d="M6.55448 2.18484H16.3863C16.9658 2.18484 17.5215 2.41503 17.9312 2.82477C18.341 3.23451 18.5711 3.79024 18.5711 4.36969V6.55454H16.3863V4.36969H6.55448V21.8485H16.3863V19.6636H18.5711V21.8485C18.5711 22.4279 18.341 22.9837 17.9312 23.3934C17.5215 23.8031 16.9658 24.0333 16.3863 24.0333H6.55448C5.97502 24.0333 5.41929 23.8031 5.00956 23.3934C4.59982 22.9837 4.36963 22.4279 4.36963 21.8485V4.36969C4.36963 3.79024 4.59982 3.23451 5.00956 2.82477C5.41929 2.41503 5.97502 2.18484 6.55448 2.18484Z" fill="white"/>
<path d="M17.5771 17.0309L19.1174 18.5712L24.5795 13.1091L19.1174 7.647L17.5771 9.18732L20.3955 12.0167H9.83179V14.2015H20.3955L17.5771 17.0309Z" fill="white"/>
</svg>
