<svg width="34" height="33" viewBox="0 0 34 33" fill="none" xmlns="http://www.w3.org/2000/svg">
<path d="M16.8153 2.04794C16.8378 1.99397 16.8649 1.96935 16.8878 1.95488C16.9153 1.93747 16.9543 1.92475 17 1.92475C17.0457 1.92475 17.0847 1.93747 17.1122 1.95488C17.1351 1.96935 17.1622 1.99397 17.1847 2.04795L20.8208 10.7902C21.1376 11.5519 21.8539 12.0724 22.6763 12.1383L32.1142 12.8949C32.1725 12.8996 32.2043 12.9178 32.2251 12.9351C32.2502 12.9559 32.2743 12.989 32.2885 13.0325C32.3026 13.076 32.3025 13.1169 32.2945 13.1485C32.2878 13.1748 32.2728 13.2081 32.2284 13.2462L25.0376 19.4058C24.4111 19.9425 24.1375 20.7846 24.3289 21.5871L26.5258 30.7969C26.5393 30.8538 26.5319 30.8897 26.5219 30.9148C26.5098 30.9451 26.4858 30.9783 26.4488 31.0051C26.4118 31.032 26.3728 31.0446 26.3403 31.0467C26.3133 31.0485 26.2769 31.0445 26.227 31.014L18.1468 26.0787C17.4427 25.6486 16.5573 25.6486 15.8532 26.0787L7.77301 31.014C7.72312 31.0445 7.68673 31.0485 7.65971 31.0467C7.62719 31.0446 7.58821 31.032 7.55121 31.0051C7.5142 30.9783 7.49018 30.9451 7.47813 30.9148C7.46811 30.8897 7.46066 30.8538 7.47422 30.7969L9.67111 21.5871C9.86253 20.7846 9.58891 19.9425 8.96237 19.4058L1.77163 13.2462C1.72723 13.2081 1.71219 13.1748 1.70551 13.1485C1.69746 13.1169 1.6974 13.076 1.71153 13.0325C1.72566 12.989 1.7498 12.9559 1.77487 12.9351C1.7957 12.9178 1.82748 12.8996 1.88576 12.8949L11.3237 12.1383C12.1461 12.0724 12.8624 11.5519 13.1792 10.7902L16.8153 2.04794Z" stroke="black" stroke-width="2"/>
</svg>
