<svg width="25" height="25" viewBox="0 0 25 25" fill="none" xmlns="http://www.w3.org/2000/svg">
<path d="M8.90099 24.3863L8.41326 20.4845C8.14908 20.3829 7.90034 20.2609 7.66704 20.1187C7.43293 19.9764 7.20411 19.824 6.98057 19.6614L3.35311 21.1856L0 15.3938L3.13973 13.0162C3.11941 12.8739 3.10925 12.7365 3.10925 12.604V11.781C3.10925 11.6493 3.11941 11.5124 3.13973 11.3701L0 8.99244L3.35311 3.2007L6.98057 4.72484C7.20411 4.56226 7.43781 4.40985 7.68167 4.2676C7.92554 4.12534 8.1694 4.00341 8.41326 3.9018L8.90099 0H15.6072L16.0949 3.9018C16.3591 4.00341 16.6083 4.12534 16.8424 4.2676C17.0757 4.40985 17.3041 4.56226 17.5276 4.72484L21.1551 3.2007L24.5082 8.99244L21.3685 11.3701C21.3888 11.5124 21.3989 11.6493 21.3989 11.781V12.604C21.3989 12.7365 21.3786 12.8739 21.338 13.0162L24.4777 15.3938L21.1246 21.1856L17.5276 19.6614C17.3041 19.824 17.0704 19.9764 16.8265 20.1187C16.5827 20.2609 16.3388 20.3829 16.0949 20.4845L15.6072 24.3863H8.90099ZM12.3151 16.4607C13.4937 16.4607 14.4997 16.0441 15.3329 15.2109C16.1661 14.3777 16.5827 13.3718 16.5827 12.1931C16.5827 11.0145 16.1661 10.0085 15.3329 9.17533C14.4997 8.34214 13.4937 7.92554 12.3151 7.92554C11.1161 7.92554 10.1049 8.34214 9.28141 9.17533C8.45878 10.0085 8.04747 11.0145 8.04747 12.1931C8.04747 13.3718 8.45878 14.3777 9.28141 15.2109C10.1049 16.0441 11.1161 16.4607 12.3151 16.4607Z" fill="white"/>
</svg>
